G04 EAGLE Gerber RS-274X export*
G75*
%MOMM*%
%FSLAX34Y34*%
%LPD*%
%IN*%
%IPPOS*%
%AMOC8*
5,1,8,0,0,1.08239X$1,22.5*%
G01*
%ADD10C,0.254000*%


D10*
X0Y0D02*
X1600000Y0D01*
X1600000Y1000000D01*
X0Y1000000D01*
X0Y0D01*
X433550Y482428D02*
X433483Y482090D01*
X433351Y481771D01*
X433159Y481484D01*
X432916Y481241D01*
X432629Y481049D01*
X432310Y480917D01*
X431972Y480850D01*
X431628Y480850D01*
X431290Y480917D01*
X430971Y481049D01*
X430684Y481241D01*
X430441Y481484D01*
X430249Y481771D01*
X430117Y482090D01*
X430050Y482428D01*
X430050Y482772D01*
X430117Y483110D01*
X430249Y483429D01*
X430441Y483716D01*
X430684Y483959D01*
X430971Y484151D01*
X431290Y484283D01*
X431628Y484350D01*
X431972Y484350D01*
X432310Y484283D01*
X432629Y484151D01*
X432916Y483959D01*
X433159Y483716D01*
X433351Y483429D01*
X433483Y483110D01*
X433550Y482772D01*
X433550Y482428D01*
X327025Y621884D02*
X326953Y621056D01*
X326808Y620236D01*
X326593Y619433D01*
X326308Y618651D01*
X325957Y617898D01*
X325541Y617177D01*
X325064Y616496D01*
X324529Y615859D01*
X323941Y615271D01*
X323304Y614736D01*
X322623Y614259D01*
X321902Y613843D01*
X321149Y613492D01*
X320367Y613207D01*
X319564Y612992D01*
X318744Y612848D01*
X317916Y612775D01*
X317084Y612775D01*
X316256Y612848D01*
X315436Y612992D01*
X314633Y613207D01*
X313851Y613492D01*
X313098Y613843D01*
X312377Y614259D01*
X311696Y614736D01*
X311059Y615271D01*
X310471Y615859D01*
X309936Y616496D01*
X309459Y617177D01*
X309043Y617898D01*
X308692Y618651D01*
X308407Y619433D01*
X308192Y620236D01*
X308048Y621056D01*
X307975Y621884D01*
X307975Y622716D01*
X308048Y623544D01*
X308192Y624364D01*
X308407Y625167D01*
X308692Y625949D01*
X309043Y626702D01*
X309459Y627423D01*
X309936Y628104D01*
X310471Y628741D01*
X311059Y629329D01*
X311696Y629864D01*
X312377Y630341D01*
X313098Y630757D01*
X313851Y631108D01*
X314633Y631393D01*
X315436Y631608D01*
X316256Y631753D01*
X317084Y631825D01*
X317916Y631825D01*
X318744Y631753D01*
X319564Y631608D01*
X320367Y631393D01*
X321149Y631108D01*
X321902Y630757D01*
X322623Y630341D01*
X323304Y629864D01*
X323941Y629329D01*
X324529Y628741D01*
X325064Y628104D01*
X325541Y627423D01*
X325957Y626702D01*
X326308Y625949D01*
X326593Y625167D01*
X326808Y624364D01*
X326953Y623544D01*
X327025Y622716D01*
X327025Y621884D01*
X428625Y621884D02*
X428553Y621056D01*
X428408Y620236D01*
X428193Y619433D01*
X427908Y618651D01*
X427557Y617898D01*
X427141Y617177D01*
X426664Y616496D01*
X426129Y615859D01*
X425541Y615271D01*
X424904Y614736D01*
X424223Y614259D01*
X423502Y613843D01*
X422749Y613492D01*
X421967Y613207D01*
X421164Y612992D01*
X420344Y612848D01*
X419516Y612775D01*
X418684Y612775D01*
X417856Y612848D01*
X417036Y612992D01*
X416233Y613207D01*
X415451Y613492D01*
X414698Y613843D01*
X413977Y614259D01*
X413296Y614736D01*
X412659Y615271D01*
X412071Y615859D01*
X411536Y616496D01*
X411059Y617177D01*
X410643Y617898D01*
X410292Y618651D01*
X410007Y619433D01*
X409792Y620236D01*
X409648Y621056D01*
X409575Y621884D01*
X409575Y622716D01*
X409648Y623544D01*
X409792Y624364D01*
X410007Y625167D01*
X410292Y625949D01*
X410643Y626702D01*
X411059Y627423D01*
X411536Y628104D01*
X412071Y628741D01*
X412659Y629329D01*
X413296Y629864D01*
X413977Y630341D01*
X414698Y630757D01*
X415451Y631108D01*
X416233Y631393D01*
X417036Y631608D01*
X417856Y631753D01*
X418684Y631825D01*
X419516Y631825D01*
X420344Y631753D01*
X421164Y631608D01*
X421967Y631393D01*
X422749Y631108D01*
X423502Y630757D01*
X424223Y630341D01*
X424904Y629864D01*
X425541Y629329D01*
X426129Y628741D01*
X426664Y628104D01*
X427141Y627423D01*
X427557Y626702D01*
X427908Y625949D01*
X428193Y625167D01*
X428408Y624364D01*
X428553Y623544D01*
X428625Y622716D01*
X428625Y621884D01*
X327025Y355184D02*
X326953Y354356D01*
X326808Y353536D01*
X326593Y352733D01*
X326308Y351951D01*
X325957Y351198D01*
X325541Y350477D01*
X325064Y349796D01*
X324529Y349159D01*
X323941Y348571D01*
X323304Y348036D01*
X322623Y347559D01*
X321902Y347143D01*
X321149Y346792D01*
X320367Y346507D01*
X319564Y346292D01*
X318744Y346148D01*
X317916Y346075D01*
X317084Y346075D01*
X316256Y346148D01*
X315436Y346292D01*
X314633Y346507D01*
X313851Y346792D01*
X313098Y347143D01*
X312377Y347559D01*
X311696Y348036D01*
X311059Y348571D01*
X310471Y349159D01*
X309936Y349796D01*
X309459Y350477D01*
X309043Y351198D01*
X308692Y351951D01*
X308407Y352733D01*
X308192Y353536D01*
X308048Y354356D01*
X307975Y355184D01*
X307975Y356016D01*
X308048Y356844D01*
X308192Y357664D01*
X308407Y358467D01*
X308692Y359249D01*
X309043Y360002D01*
X309459Y360723D01*
X309936Y361404D01*
X310471Y362041D01*
X311059Y362629D01*
X311696Y363164D01*
X312377Y363641D01*
X313098Y364057D01*
X313851Y364408D01*
X314633Y364693D01*
X315436Y364908D01*
X316256Y365053D01*
X317084Y365125D01*
X317916Y365125D01*
X318744Y365053D01*
X319564Y364908D01*
X320367Y364693D01*
X321149Y364408D01*
X321902Y364057D01*
X322623Y363641D01*
X323304Y363164D01*
X323941Y362629D01*
X324529Y362041D01*
X325064Y361404D01*
X325541Y360723D01*
X325957Y360002D01*
X326308Y359249D01*
X326593Y358467D01*
X326808Y357664D01*
X326953Y356844D01*
X327025Y356016D01*
X327025Y355184D01*
X428625Y355184D02*
X428553Y354356D01*
X428408Y353536D01*
X428193Y352733D01*
X427908Y351951D01*
X427557Y351198D01*
X427141Y350477D01*
X426664Y349796D01*
X426129Y349159D01*
X425541Y348571D01*
X424904Y348036D01*
X424223Y347559D01*
X423502Y347143D01*
X422749Y346792D01*
X421967Y346507D01*
X421164Y346292D01*
X420344Y346148D01*
X419516Y346075D01*
X418684Y346075D01*
X417856Y346148D01*
X417036Y346292D01*
X416233Y346507D01*
X415451Y346792D01*
X414698Y347143D01*
X413977Y347559D01*
X413296Y348036D01*
X412659Y348571D01*
X412071Y349159D01*
X411536Y349796D01*
X411059Y350477D01*
X410643Y351198D01*
X410292Y351951D01*
X410007Y352733D01*
X409792Y353536D01*
X409648Y354356D01*
X409575Y355184D01*
X409575Y356016D01*
X409648Y356844D01*
X409792Y357664D01*
X410007Y358467D01*
X410292Y359249D01*
X410643Y360002D01*
X411059Y360723D01*
X411536Y361404D01*
X412071Y362041D01*
X412659Y362629D01*
X413296Y363164D01*
X413977Y363641D01*
X414698Y364057D01*
X415451Y364408D01*
X416233Y364693D01*
X417036Y364908D01*
X417856Y365053D01*
X418684Y365125D01*
X419516Y365125D01*
X420344Y365053D01*
X421164Y364908D01*
X421967Y364693D01*
X422749Y364408D01*
X423502Y364057D01*
X424223Y363641D01*
X424904Y363164D01*
X425541Y362629D01*
X426129Y362041D01*
X426664Y361404D01*
X427141Y360723D01*
X427557Y360002D01*
X427908Y359249D01*
X428193Y358467D01*
X428408Y357664D01*
X428553Y356844D01*
X428625Y356016D01*
X428625Y355184D01*
X822325Y520284D02*
X822253Y519456D01*
X822108Y518636D01*
X821893Y517833D01*
X821608Y517051D01*
X821257Y516298D01*
X820841Y515577D01*
X820364Y514896D01*
X819829Y514259D01*
X819241Y513671D01*
X818604Y513136D01*
X817923Y512659D01*
X817202Y512243D01*
X816449Y511892D01*
X815667Y511607D01*
X814864Y511392D01*
X814044Y511248D01*
X813216Y511175D01*
X812384Y511175D01*
X811556Y511248D01*
X810736Y511392D01*
X809933Y511607D01*
X809151Y511892D01*
X808398Y512243D01*
X807677Y512659D01*
X806996Y513136D01*
X806359Y513671D01*
X805771Y514259D01*
X805236Y514896D01*
X804759Y515577D01*
X804343Y516298D01*
X803992Y517051D01*
X803707Y517833D01*
X803492Y518636D01*
X803348Y519456D01*
X803275Y520284D01*
X803275Y521116D01*
X803348Y521944D01*
X803492Y522764D01*
X803707Y523567D01*
X803992Y524349D01*
X804343Y525102D01*
X804759Y525823D01*
X805236Y526504D01*
X805771Y527141D01*
X806359Y527729D01*
X806996Y528264D01*
X807677Y528741D01*
X808398Y529157D01*
X809151Y529508D01*
X809933Y529793D01*
X810736Y530008D01*
X811556Y530153D01*
X812384Y530225D01*
X813216Y530225D01*
X814044Y530153D01*
X814864Y530008D01*
X815667Y529793D01*
X816449Y529508D01*
X817202Y529157D01*
X817923Y528741D01*
X818604Y528264D01*
X819241Y527729D01*
X819829Y527141D01*
X820364Y526504D01*
X820841Y525823D01*
X821257Y525102D01*
X821608Y524349D01*
X821893Y523567D01*
X822108Y522764D01*
X822253Y521944D01*
X822325Y521116D01*
X822325Y520284D01*
X949325Y520284D02*
X949253Y519456D01*
X949108Y518636D01*
X948893Y517833D01*
X948608Y517051D01*
X948257Y516298D01*
X947841Y515577D01*
X947364Y514896D01*
X946829Y514259D01*
X946241Y513671D01*
X945604Y513136D01*
X944923Y512659D01*
X944202Y512243D01*
X943449Y511892D01*
X942667Y511607D01*
X941864Y511392D01*
X941044Y511248D01*
X940216Y511175D01*
X939384Y511175D01*
X938556Y511248D01*
X937736Y511392D01*
X936933Y511607D01*
X936151Y511892D01*
X935398Y512243D01*
X934677Y512659D01*
X933996Y513136D01*
X933359Y513671D01*
X932771Y514259D01*
X932236Y514896D01*
X931759Y515577D01*
X931343Y516298D01*
X930992Y517051D01*
X930707Y517833D01*
X930492Y518636D01*
X930348Y519456D01*
X930275Y520284D01*
X930275Y521116D01*
X930348Y521944D01*
X930492Y522764D01*
X930707Y523567D01*
X930992Y524349D01*
X931343Y525102D01*
X931759Y525823D01*
X932236Y526504D01*
X932771Y527141D01*
X933359Y527729D01*
X933996Y528264D01*
X934677Y528741D01*
X935398Y529157D01*
X936151Y529508D01*
X936933Y529793D01*
X937736Y530008D01*
X938556Y530153D01*
X939384Y530225D01*
X940216Y530225D01*
X941044Y530153D01*
X941864Y530008D01*
X942667Y529793D01*
X943449Y529508D01*
X944202Y529157D01*
X944923Y528741D01*
X945604Y528264D01*
X946241Y527729D01*
X946829Y527141D01*
X947364Y526504D01*
X947841Y525823D01*
X948257Y525102D01*
X948608Y524349D01*
X948893Y523567D01*
X949108Y522764D01*
X949253Y521944D01*
X949325Y521116D01*
X949325Y520284D01*
X949325Y278984D02*
X949253Y278156D01*
X949108Y277336D01*
X948893Y276533D01*
X948608Y275751D01*
X948257Y274998D01*
X947841Y274277D01*
X947364Y273596D01*
X946829Y272959D01*
X946241Y272371D01*
X945604Y271836D01*
X944923Y271359D01*
X944202Y270943D01*
X943449Y270592D01*
X942667Y270307D01*
X941864Y270092D01*
X941044Y269948D01*
X940216Y269875D01*
X939384Y269875D01*
X938556Y269948D01*
X937736Y270092D01*
X936933Y270307D01*
X936151Y270592D01*
X935398Y270943D01*
X934677Y271359D01*
X933996Y271836D01*
X933359Y272371D01*
X932771Y272959D01*
X932236Y273596D01*
X931759Y274277D01*
X931343Y274998D01*
X930992Y275751D01*
X930707Y276533D01*
X930492Y277336D01*
X930348Y278156D01*
X930275Y278984D01*
X930275Y279816D01*
X930348Y280644D01*
X930492Y281464D01*
X930707Y282267D01*
X930992Y283049D01*
X931343Y283802D01*
X931759Y284523D01*
X932236Y285204D01*
X932771Y285841D01*
X933359Y286429D01*
X933996Y286964D01*
X934677Y287441D01*
X935398Y287857D01*
X936151Y288208D01*
X936933Y288493D01*
X937736Y288708D01*
X938556Y288853D01*
X939384Y288925D01*
X940216Y288925D01*
X941044Y288853D01*
X941864Y288708D01*
X942667Y288493D01*
X943449Y288208D01*
X944202Y287857D01*
X944923Y287441D01*
X945604Y286964D01*
X946241Y286429D01*
X946829Y285841D01*
X947364Y285204D01*
X947841Y284523D01*
X948257Y283802D01*
X948608Y283049D01*
X948893Y282267D01*
X949108Y281464D01*
X949253Y280644D01*
X949325Y279816D01*
X949325Y278984D01*
X822325Y278984D02*
X822253Y278156D01*
X822108Y277336D01*
X821893Y276533D01*
X821608Y275751D01*
X821257Y274998D01*
X820841Y274277D01*
X820364Y273596D01*
X819829Y272959D01*
X819241Y272371D01*
X818604Y271836D01*
X817923Y271359D01*
X817202Y270943D01*
X816449Y270592D01*
X815667Y270307D01*
X814864Y270092D01*
X814044Y269948D01*
X813216Y269875D01*
X812384Y269875D01*
X811556Y269948D01*
X810736Y270092D01*
X809933Y270307D01*
X809151Y270592D01*
X808398Y270943D01*
X807677Y271359D01*
X806996Y271836D01*
X806359Y272371D01*
X805771Y272959D01*
X805236Y273596D01*
X804759Y274277D01*
X804343Y274998D01*
X803992Y275751D01*
X803707Y276533D01*
X803492Y277336D01*
X803348Y278156D01*
X803275Y278984D01*
X803275Y279816D01*
X803348Y280644D01*
X803492Y281464D01*
X803707Y282267D01*
X803992Y283049D01*
X804343Y283802D01*
X804759Y284523D01*
X805236Y285204D01*
X805771Y285841D01*
X806359Y286429D01*
X806996Y286964D01*
X807677Y287441D01*
X808398Y287857D01*
X809151Y288208D01*
X809933Y288493D01*
X810736Y288708D01*
X811556Y288853D01*
X812384Y288925D01*
X813216Y288925D01*
X814044Y288853D01*
X814864Y288708D01*
X815667Y288493D01*
X816449Y288208D01*
X817202Y287857D01*
X817923Y287441D01*
X818604Y286964D01*
X819241Y286429D01*
X819829Y285841D01*
X820364Y285204D01*
X820841Y284523D01*
X821257Y283802D01*
X821608Y283049D01*
X821893Y282267D01*
X822108Y281464D01*
X822253Y280644D01*
X822325Y279816D01*
X822325Y278984D01*
M02*
