G04 EAGLE Gerber RS-274X export*
G75*
%MOMM*%
%FSLAX34Y34*%
%LPD*%
%INSolderpaste Top*%
%IPPOS*%
%AMOC8*
5,1,8,0,0,1.08239X$1,22.5*%
G01*
%ADD10R,0.350000X0.350000*%
%ADD11R,1.100000X1.000000*%
%ADD12R,1.000000X1.100000*%


D10*
X431800Y233600D03*
X431800Y223600D03*
X591900Y342900D03*
X601900Y342900D03*
X304800Y233600D03*
X304800Y223600D03*
X144700Y342900D03*
X134700Y342900D03*
X144700Y482600D03*
X134700Y482600D03*
X144700Y635000D03*
X134700Y635000D03*
X304800Y744300D03*
X304800Y754300D03*
X431800Y744300D03*
X431800Y754300D03*
X591900Y635000D03*
X601900Y635000D03*
X591900Y482600D03*
X601900Y482600D03*
D11*
X431800Y270900D03*
X431800Y287900D03*
D12*
X541900Y342900D03*
X524900Y342900D03*
X372500Y469900D03*
X389500Y469900D03*
D11*
X304800Y270900D03*
X304800Y287900D03*
D12*
X194700Y342900D03*
X211700Y342900D03*
X194700Y482600D03*
X211700Y482600D03*
X207400Y635000D03*
X224400Y635000D03*
D11*
X304800Y694300D03*
X304800Y677300D03*
X431800Y694300D03*
X431800Y677300D03*
D12*
X516500Y635000D03*
X499500Y635000D03*
X541900Y482600D03*
X524900Y482600D03*
D10*
X744300Y495300D03*
X754300Y495300D03*
X876300Y452200D03*
X876300Y462200D03*
X1054100Y452200D03*
X1054100Y462200D03*
X1211500Y609600D03*
X1201500Y609600D03*
X1054100Y754300D03*
X1054100Y744300D03*
X876300Y754300D03*
X876300Y744300D03*
X749300Y754300D03*
X749300Y744300D03*
X744300Y622300D03*
X754300Y622300D03*
X744300Y368300D03*
X754300Y368300D03*
X744300Y228600D03*
X754300Y228600D03*
D12*
X707000Y495300D03*
X690000Y495300D03*
D11*
X876300Y414900D03*
X876300Y397900D03*
X1054100Y414900D03*
X1054100Y397900D03*
D12*
X1248800Y609600D03*
X1265800Y609600D03*
D11*
X1054100Y791600D03*
X1054100Y808600D03*
X876300Y791600D03*
X876300Y808600D03*
X749300Y791600D03*
X749300Y808600D03*
D12*
X707000Y622300D03*
X690000Y622300D03*
X707000Y368300D03*
X690000Y368300D03*
X707000Y228600D03*
X690000Y228600D03*
X855100Y584200D03*
X872100Y584200D03*
M02*
